<?xml version="1.0" encoding="utf-8"?>
<!-- Generator: Adobe Illustrator 16.0.0, SVG Export Plug-In . SVG Version: 6.00 Build 0)  -->
<!DOCTYPE svg PUBLIC "-//W3C//DTD SVG 1.1//EN" "http://www.w3.org/Graphics/SVG/1.1/DTD/svg11.dtd">
<svg version="1.1" id="图层_1" xmlns="http://www.w3.org/2000/svg" xmlns:xlink="http://www.w3.org/1999/xlink" x="0px" y="0px"
	 width="442.5px" height="379.688px" viewBox="0 0 442.5 379.688" enable-background="new 0 0 442.5 379.688" xml:space="preserve">
<path fill="#549EF8" d="M435.88,90.528l-81.84-81.84c-6-6-14.4-9.12-23.04-8.64c-0.72,0-1.68,0-2.4,0H285.16l-3.12,1.68
	c-16.08,8.88-36.72,13.92-58.08,13.92c-21.36,0-41.76-5.04-58.08-13.92L163,0.049h-43.68c-11.04,0-21.12,6-26.16,15.6l-80.88,80.88
	c-5.52,5.521-8.64,12.96-8.64,20.88s3.12,15.36,8.64,20.88l59.04,59.041c5.04,5.039,11.28,7.92,18.24,8.643v142.801
	c0,16.562,13.44,29.76,29.76,29.76H328.6c16.562,0,29.764-13.438,29.764-29.76V199.971c6.96-0.479,13.438-3.604,18.479-8.643
	l59.04-59.041C447.4,120.768,447.4,101.808,435.88,90.528z M273.88,249.889h-93.12c-3.84,0-5.52-5.521-5.52-5.521V122.448
	c0-5.52,4.56-6.479,4.56-6.479h86.64c4.804,0,2.881,5.52,2.881,5.52s-2.641,7.44-4.561,11.04c-1.92,3.601-5.52,3.601-5.52,3.601
	h-56.4c-5.28,0-5.52,4.56-5.52,4.56v30.479h63.6c3.84,0,1.92,4.561,1.92,4.561s-4.8,10.08-6.48,12.96
	c-1.68,2.64-5.52,2.88-5.52,2.88h-53.52v32.4c0,4.318,4.56,5.52,4.56,5.52h59.04c4.32,0,5.52,2.879,5.52,2.879
	s5.764,9.121,8.4,12.961C277.48,248.928,273.88,249.889,273.88,249.889z"/>
</svg>
