<svg id="图层_1" data-name="图层 1" xmlns="http://www.w3.org/2000/svg" viewBox="0 0 30 30"><defs><style>.cls-1{fill:#fff;}</style></defs><title>iconfinder_github_rounded_394187</title><path class="cls-1" d="M15,.37A15,15,0,0,0,10.26,29.6c.75.14,1-.33,1-.72s0-1.54,0-2.79c-4.17.91-5.05-1.77-5.05-1.77a4,4,0,0,0-1.67-2.19c-1.36-.93.1-.91.1-.91a3.15,3.15,0,0,1,2.3,1.55A3.19,3.19,0,0,0,11.31,24a3.19,3.19,0,0,1,1-2c-3.33-.38-6.83-1.67-6.83-7.41a5.8,5.8,0,0,1,1.55-4,5.39,5.39,0,0,1,.15-4s1.26-.4,4.13,1.54a14.23,14.23,0,0,1,7.51,0c2.86-1.94,4.12-1.54,4.12-1.54a5.38,5.38,0,0,1,.15,4,5.79,5.79,0,0,1,1.54,4c0,5.76-3.51,7-6.85,7.4a3.59,3.59,0,0,1,1,2.78c0,2,0,3.62,0,4.12s.27.87,1,.72A15,15,0,0,0,15,.37Z"/><path class="cls-1" d="M5.68,21.91c0,.07-.15.1-.26,0s-.17-.15-.13-.23.15-.1.26,0,.17.15.13.23Z"/><path class="cls-1" d="M6.29,22.58c-.07.07-.21,0-.31-.07a.23.23,0,0,1,0-.31c.07-.07.21,0,.31.07s.12.24,0,.31Z"/><path class="cls-1" d="M6.88,23.45c-.09.06-.24,0-.34-.13s-.09-.29,0-.36.24,0,.34.13.09.3,0,.36Z"/><path class="cls-1" d="M7.69,24.28c-.08.09-.26.07-.39-.06a.29.29,0,0,1-.09-.38c.08-.09.26-.07.39.06s.17.29.08.38Z"/><path class="cls-1" d="M8.81,24.77c0,.12-.2.17-.37.12s-.28-.19-.25-.31.2-.17.38-.12.28.19.25.31Z"/><path class="cls-1" d="M10,24.86c0,.12-.14.23-.32.23s-.32-.1-.33-.22.14-.23.32-.23.32.1.32.22Z"/><path class="cls-1" d="M11.18,24.66c0,.12-.1.24-.28.28s-.34,0-.36-.16.1-.25.28-.28.34,0,.36.16Z"/></svg>