<svg id="图层_1" data-name="图层 1" xmlns="http://www.w3.org/2000/svg" viewBox="0 0 152 30"><defs><style>.cls-1{fill:#fff;}.cls-2{fill:#353535;}.cls-3{fill:#f8d14a;}.cls-4{fill:none;}.cls-5{fill:#f04d98;}.cls-6{fill:#bc2076;}.cls-7{fill:#d1a424;}.cls-8{fill:#45a8e0;}.cls-9{fill:#2a8eba;}</style></defs><title>logo</title><path class="cls-1" d="M105.88,2.43V9.59a6.63,6.63,0,0,0-4.76-2,7.42,7.42,0,0,0-5.54,2.36,7.78,7.78,0,0,0-2.26,5.66,7.94,7.94,0,0,0,2.31,5.68A7.05,7.05,0,0,0,101,23.65a6.89,6.89,0,0,0,4.91-2.08v1.89h3v-21h-3Zm-4.53,18.43a4.7,4.7,0,0,1-3.56-1.56,5.28,5.28,0,0,1,0-7.32,5,5,0,0,1,7.19-.05,5.19,5.19,0,0,1,1.43,3.76,5.12,5.12,0,0,1-5,5.17Z"/><path class="cls-1" d="M71.57,7.59v2a7,7,0,0,0-4.85-2,7.59,7.59,0,0,0-5.49,2.27,7.27,7.27,0,0,0-2.28,5.48,7.31,7.31,0,0,0,2.21,5.34A7.46,7.46,0,0,0,66.67,23a8.19,8.19,0,0,0,3.17-.64,7.24,7.24,0,0,0,2-1.22,6.1,6.1,0,0,1-.47,2.33A3.49,3.49,0,0,1,69.68,25a6.28,6.28,0,0,1-2.79.6A5,5,0,0,1,62.09,23L62,22.72h-3.1l.2.55c1.31,3.33,4,5,7.89,5a9.59,9.59,0,0,0,3.19-.5,6.93,6.93,0,0,0,2.52-1.52,6.1,6.1,0,0,0,1.45-2.48,14.53,14.53,0,0,0,.39-4.37V7.59Zm.34,7.77a4.53,4.53,0,0,1-1.39,3.44,5.49,5.49,0,0,1-7.23,0,4.44,4.44,0,0,1-1.4-3.33A4.77,4.77,0,0,1,63.37,12,4.88,4.88,0,0,1,67,10.48a4.75,4.75,0,0,1,3.47,1.38A4.65,4.65,0,0,1,71.91,15.37Z"/><path class="cls-1" d="M49.18,9a8.06,8.06,0,0,0-10.35.88,7.81,7.81,0,0,0-2.31,5.65,7.92,7.92,0,0,0,2.29,5.67,7.46,7.46,0,0,0,5.54,2.38,7.3,7.3,0,0,0,5.08-2.08v1.92h3V14.7A7.82,7.82,0,0,0,51.14,11,8.12,8.12,0,0,0,50,9.72,9.15,9.15,0,0,0,49.18,9Zm-4.67,11.8a4.72,4.72,0,0,1-3.56-1.55,5.28,5.28,0,0,1,0-7.33,4.68,4.68,0,0,1,3.57-1.54,4.76,4.76,0,0,1,3.57,1.5,5.08,5.08,0,0,1,1.46,3.73A5,5,0,0,1,48,19.35,4.79,4.79,0,0,1,44.51,20.83Z"/><path class="cls-1" d="M123.15,9a8.06,8.06,0,0,0-10.35.88,7.81,7.81,0,0,0-2.31,5.65,7.92,7.92,0,0,0,2.29,5.67,7.27,7.27,0,0,0,5.45,2.38,7.09,7.09,0,0,0,5-2.08v1.92h3V14.7A7.94,7.94,0,0,0,125,11a8,8,0,0,0-1.08-1.25A10.15,10.15,0,0,0,123.15,9Zm-4.67,11.8a4.72,4.72,0,0,1-3.56-1.55,5.28,5.28,0,0,1,0-7.33,4.68,4.68,0,0,1,3.57-1.54,4.76,4.76,0,0,1,3.57,1.5,5.08,5.08,0,0,1,1.46,3.73A5,5,0,0,1,122,19.35,4.79,4.79,0,0,1,118.48,20.83Z"/><path class="cls-1" d="M149,9a8.06,8.06,0,0,0-10.35.88,7.81,7.81,0,0,0-2.31,5.65,7.92,7.92,0,0,0,2.29,5.67,7.27,7.27,0,0,0,5.45,2.38,7.09,7.09,0,0,0,5-2.08v1.92h3V14.7A7.94,7.94,0,0,0,150.85,11a8,8,0,0,0-1.08-1.25A10.15,10.15,0,0,0,149,9Zm-4.67,11.8a4.72,4.72,0,0,1-3.56-1.55,5.28,5.28,0,0,1,0-7.33,4.68,4.68,0,0,1,3.57-1.54,4.76,4.76,0,0,1,3.57,1.5,5.08,5.08,0,0,1,1.46,3.73,5,5,0,0,1-1.49,3.71A4.79,4.79,0,0,1,144.3,20.83Z"/><path class="cls-1" d="M55.72,2.5a1.68,1.68,0,0,1,1.7,1.69,1.68,1.68,0,0,1-1.69,1.69,1.6,1.6,0,0,1-1.19-.5,1.67,1.67,0,0,1,0-2.36A1.59,1.59,0,0,1,55.72,2.5Z"/><rect class="cls-1" x="54.63" y="7.99" width="2.2" height="15.22"/><rect class="cls-1" x="54.26" y="7.61" width="2.94" height="15.97"/><rect class="cls-1" x="55" y="8.37" width="1.47" height="14.46"/><path class="cls-1" d="M55.73,6.24a2,2,0,0,1-1.46-.62,2,2,0,0,1,0-2.88,2,2,0,0,1,1.45-.62,2,2,0,0,1,2.07,2.06,2,2,0,0,1-2.06,2.06Z"/><path class="cls-1" d="M55.72,2.87a1.23,1.23,0,0,0-.92.39,1.3,1.3,0,0,0,0,1.85,1.24,1.24,0,0,0,.93.39A1.31,1.31,0,0,0,57,4.19a1.26,1.26,0,0,0-.38-.93A1.28,1.28,0,0,0,55.72,2.87Z"/><path class="cls-1" d="M89.57,9.92a7.81,7.81,0,0,0-11.21,0,7.9,7.9,0,0,0-2.3,5.68,7.87,7.87,0,0,0,2.28,5.66,7.89,7.89,0,0,0,11.25,0,7.9,7.9,0,0,0,2.27-5.66A7.9,7.9,0,0,0,89.57,9.92ZM84,20.78a4.63,4.63,0,0,1-3.53-1.48A5,5,0,0,1,79,15.68,5.15,5.15,0,0,1,80.5,12a4.67,4.67,0,0,1,6.94,0,5.11,5.11,0,0,1,1.48,3.68,5,5,0,0,1-1.45,3.62A4.64,4.64,0,0,1,84,20.78Z"/><path class="cls-1" d="M135.77,10.55V8h-4.06V2.43h-3V8.09h0v2.58h0v8.24a10.4,10.4,0,0,0,.42,3.57,2.82,2.82,0,0,0,2.54,1.11,25.56,25.56,0,0,0,3-.18l.28-.05V20.51h-2.26c-1.15,0-1.06-.65-1.06-1.35V10.55Z"/><polygon class="cls-2" points="12.93 13.14 14.56 16.09 16.19 19.03 12.93 19.03 9.66 19.03 11.29 16.09 12.93 13.14"/><polygon class="cls-3" points="15.67 9.53 13.14 5.17 10.62 9.53 13.14 13.9 15.67 9.53"/><polygon class="cls-4" points="10.81 17.93 15.48 17.93 13.14 13.88 10.81 17.93"/><polygon class="cls-5" points="10.81 17.93 8.29 22.35 18 22.35 15.48 17.93 10.81 17.93"/><polygon class="cls-6" points="14.61 17.93 17.13 22.35 22.17 22.35 19.65 17.93 14.61 17.93"/><path class="cls-5" d="M2,17.92A2,2,0,0,0,0,20v.22a2,2,0,0,0,2,2.11H3.24l2.52-4.43Z"/><path class="cls-5" d="M24.06,17.92H20.52L23,22.35h1a2.15,2.15,0,0,0,2.13-2.11V20A2.14,2.14,0,0,0,24.06,17.92Z"/><path class="cls-3" d="M2.9,22.93a2.06,2.06,0,0,0,.76,2.83l.19.1a2.07,2.07,0,0,0,2.83-.74l1.61-2.77h-5Z"/><polygon class="cls-7" points="5.28 19.03 2.88 23.1 7.9 23.16 10.27 19.03 5.28 19.03"/><polygon class="cls-5" points="5.76 17.93 3.24 22.35 8.29 22.35 10.81 17.93 5.76 17.93"/><path class="cls-8" d="M19.61,25.11a2.07,2.07,0,0,0,2.83.75l.19-.11a2.06,2.06,0,0,0,.76-2.82L23,22.35H18Z"/><polygon class="cls-8" points="15.48 17.93 18 22.35 23.05 22.35 20.52 17.93 15.48 17.93"/><path class="cls-3" d="M10,11.38a3.09,3.09,0,0,1,.59-1.82v0l-4.86,8.4h5l2-3.47A3.1,3.1,0,0,1,10,11.38Z"/><path class="cls-8" d="M15.67,9.53h0l0,0Z"/><path class="cls-3" d="M15.66,9.54a3.11,3.11,0,0,0-5,0l2.51,4.35Z"/><path class="cls-3" d="M10.63,9.55a3.11,3.11,0,0,0,2.18,4.92l.33-.57Z"/><path class="cls-8" d="M16,10.06l-.28-.49,0,0L13.14,13.9l.33.56,2,3.46h5Z"/><path class="cls-9" d="M16.11,10.3l-.41-.72,0,0L13.14,13.9l.46.79Z"/><path class="cls-3" d="M17.71,6A2.07,2.07,0,0,0,17,3.16L16.76,3a2.07,2.07,0,0,0-2.83.76l-.78,1.36,2.52,4.37Z"/><path class="cls-8" d="M12.36,3.81A2.08,2.08,0,0,0,9.53,3l-.19.11A2.08,2.08,0,0,0,8.58,6l2,3.54,2.52-4.37Z"/></svg>