<svg id="图层_1" data-name="图层 1" xmlns="http://www.w3.org/2000/svg" viewBox="0 0 152 30"><defs><style>.cls-1{fill:#353535;}.cls-2{fill:#45a8e0;}.cls-3{fill:#f8d14a;}.cls-4{fill:none;}.cls-5{fill:#f04d98;}.cls-6{fill:#bc2076;}.cls-7{fill:#d1a424;}.cls-8{fill:#2a8eba;}</style></defs><title>logo</title><path class="cls-1" d="M105.88,2.85V10a6.43,6.43,0,0,0-4.67-2,7.32,7.32,0,0,0-5.5,2.36A7.76,7.76,0,0,0,93.48,16a8,8,0,0,0,2.32,5.68,6.87,6.87,0,0,0,5.27,2.37A6.69,6.69,0,0,0,105.88,22v1.87h3v-21h-3Zm-4.34,18.45A4.7,4.7,0,0,1,98,19.75a5.28,5.28,0,0,1,0-7.32,5,5,0,0,1,7.19-.05,5.19,5.19,0,0,1,1.43,3.76,5.12,5.12,0,0,1-5,5.17Z"/><path class="cls-1" d="M71.57,8v2a6.76,6.76,0,0,0-4.76-2,7.49,7.49,0,0,0-5.45,2.27,7.25,7.25,0,0,0-2.26,5.48,7.32,7.32,0,0,0,2.22,5.34,7.48,7.48,0,0,0,5.52,2.26A8.21,8.21,0,0,0,70,22.77a7.25,7.25,0,0,0,2-1.22,6.1,6.1,0,0,1-.47,2.33,3.49,3.49,0,0,1-1.66,1.53,6.28,6.28,0,0,1-2.79.6,5.06,5.06,0,0,1-4.8-2.63l-.11-.24h-3.1l.2.56c1.31,3.33,4,5,7.89,5a9.58,9.58,0,0,0,3.19-.5,6.93,6.93,0,0,0,2.52-1.52,5.93,5.93,0,0,0,1.36-2.48,15.18,15.18,0,0,0,.29-4.37V8Zm.53,7.79a4.53,4.53,0,0,1-1.39,3.44,5.49,5.49,0,0,1-7.23,0,4.44,4.44,0,0,1-1.4-3.33,4.77,4.77,0,0,1,1.47-3.47,4.88,4.88,0,0,1,3.65-1.5,4.75,4.75,0,0,1,3.47,1.38A4.65,4.65,0,0,1,72.1,15.81Z"/><path class="cls-1" d="M49.36,9.48A8.06,8.06,0,0,0,39,10.35,7.81,7.81,0,0,0,36.7,16,7.92,7.92,0,0,0,39,21.68a7.27,7.27,0,0,0,5.45,2.38,7.09,7.09,0,0,0,5-2.08v1.9h3V15.15a7.94,7.94,0,0,0-1.15-3.73,8,8,0,0,0-1.08-1.25A10.09,10.09,0,0,0,49.36,9.48Zm-4.67,11.8a4.72,4.72,0,0,1-3.56-1.55,5.28,5.28,0,0,1,0-7.33,4.68,4.68,0,0,1,3.57-1.54,4.76,4.76,0,0,1,3.57,1.5,5.08,5.08,0,0,1,1.46,3.73,5,5,0,0,1-1.49,3.71A4.79,4.79,0,0,1,44.69,21.28Z"/><path class="cls-1" d="M123.33,9.48a8.06,8.06,0,0,0-10.35.88A7.81,7.81,0,0,0,110.67,16,7.92,7.92,0,0,0,113,21.68a7.07,7.07,0,0,0,5.36,2.38,6.88,6.88,0,0,0,4.9-2.08v1.9h3V15.15a8.09,8.09,0,0,0-1.06-3.73,7.86,7.86,0,0,0-1-1.25C123.77,9.87,123.49,9.59,123.33,9.48Zm-4.67,11.8a4.72,4.72,0,0,1-3.56-1.55,5.28,5.28,0,0,1,0-7.33,4.68,4.68,0,0,1,3.57-1.54,4.76,4.76,0,0,1,3.57,1.5,5.08,5.08,0,0,1,1.46,3.73,5,5,0,0,1-1.49,3.71A4.79,4.79,0,0,1,118.66,21.28Z"/><path class="cls-1" d="M149.16,9.48a8.06,8.06,0,0,0-10.35.88A7.81,7.81,0,0,0,136.5,16a7.92,7.92,0,0,0,2.29,5.67,7.07,7.07,0,0,0,5.36,2.38A6.88,6.88,0,0,0,149,22v1.9h3V15.15a8.09,8.09,0,0,0-1.06-3.73,7.86,7.86,0,0,0-1-1.25C149.59,9.87,149.32,9.59,149.16,9.48Zm-4.67,11.8a4.72,4.72,0,0,1-3.56-1.55,5.28,5.28,0,0,1,0-7.33,4.68,4.68,0,0,1,3.57-1.54,4.76,4.76,0,0,1,3.57,1.5,5.08,5.08,0,0,1,1.46,3.73A5,5,0,0,1,148,19.79,4.79,4.79,0,0,1,144.49,21.28Z"/><path class="cls-2" d="M55.9,2.95a1.68,1.68,0,0,1,1.7,1.69,1.68,1.68,0,0,1-1.69,1.69,1.6,1.6,0,0,1-1.19-.5,1.67,1.67,0,0,1,0-2.36A1.59,1.59,0,0,1,55.9,2.95Z"/><rect class="cls-1" x="54.81" y="8.43" width="2.2" height="15.22"/><rect class="cls-1" x="54.44" y="8.05" width="2.94" height="15.97"/><rect class="cls-1" x="55.18" y="8.81" width="1.47" height="14.46"/><path class="cls-2" d="M55.92,6.69a2,2,0,0,1-1.46-.62,2,2,0,0,1,0-2.88,2,2,0,0,1,1.45-.62A2,2,0,0,1,58,4.63a2,2,0,0,1-2.06,2.06Z"/><path class="cls-2" d="M55.9,3.31a1.23,1.23,0,0,0-.92.39,1.3,1.3,0,0,0,0,1.85,1.24,1.24,0,0,0,.93.39,1.31,1.31,0,0,0,1.32-1.32,1.26,1.26,0,0,0-.38-.93A1.28,1.28,0,0,0,55.9,3.31Z"/><path class="cls-1" d="M89.75,10.37a7.81,7.81,0,0,0-11.21,0A7.9,7.9,0,0,0,76.25,16a7.87,7.87,0,0,0,2.28,5.66,7.89,7.89,0,0,0,11.25,0A7.9,7.9,0,0,0,92.05,16,7.9,7.9,0,0,0,89.75,10.37ZM84.16,21.22a4.63,4.63,0,0,1-3.53-1.48,5,5,0,0,1-1.41-3.62,5.15,5.15,0,0,1,1.47-3.69,4.67,4.67,0,0,1,6.94,0,5.11,5.11,0,0,1,1.48,3.68,5,5,0,0,1-1.45,3.62A4.64,4.64,0,0,1,84.16,21.22Z"/><path class="cls-1" d="M135.77,11V8.39h-4.06V2.85h-3V8.53h0v2.58h0v8.24a10.3,10.3,0,0,0,.51,3.57A2.9,2.9,0,0,0,131.85,24a24.51,24.51,0,0,0,3-.18l.21-.05V20.93H133c-1.15,0-1.25-.63-1.25-1.33V11Z"/><polygon class="cls-1" points="13.11 13.59 14.74 16.52 16.37 19.46 13.11 19.46 9.85 19.46 11.48 16.52 13.11 13.59"/><polygon class="cls-3" points="15.85 9.98 13.33 5.61 10.81 9.98 13.33 14.35 15.85 9.98"/><polygon class="cls-4" points="10.99 18.35 15.66 18.35 13.33 14.3 10.99 18.35"/><polygon class="cls-5" points="10.99 18.35 8.47 22.78 18.19 22.78 15.66 18.35 10.99 18.35"/><polygon class="cls-6" points="14.79 18.35 17.31 22.78 22.36 22.78 19.83 18.35 14.79 18.35"/><path class="cls-5" d="M2.19,18.35A2.21,2.21,0,0,0,0,20.46v.22a2.19,2.19,0,0,0,2.19,2.09H3.43L6,18.35Z"/><path class="cls-5" d="M24.25,18.35H20.71l2.52,4.43h1a2,2,0,0,0,1.94-2.09v-.22A2,2,0,0,0,24.25,18.35Z"/><path class="cls-3" d="M3.08,23.36a2.07,2.07,0,0,0,.76,2.83L4,26.3a2.07,2.07,0,0,0,2.83-.75l1.61-2.77h-5Z"/><polygon class="cls-7" points="5.46 19.46 3.06 23.54 8.09 23.59 10.46 19.46 5.46 19.46"/><polygon class="cls-5" points="5.95 18.35 3.43 22.78 8.47 22.78 10.99 18.35 5.95 18.35"/><path class="cls-2" d="M19.79,25.55a2.07,2.07,0,0,0,2.83.76l.19-.11a2.07,2.07,0,0,0,.76-2.83l-.34-.59h-5Z"/><polygon class="cls-2" points="15.66 18.35 18.19 22.78 23.23 22.78 20.71 18.35 15.66 18.35"/><path class="cls-3" d="M10.23,11.82A3.09,3.09,0,0,1,10.82,10v0L5.95,18.35h5l2-3.46A3.09,3.09,0,0,1,10.23,11.82Z"/><path class="cls-2" d="M15.85,10h0l0,0Z"/><path class="cls-3" d="M15.85,10a3.11,3.11,0,0,0-5,0l2.51,4.35Z"/><path class="cls-3" d="M10.82,10A3.11,3.11,0,0,0,13,14.91l.33-.57Z"/><path class="cls-2" d="M16.16,10.49,15.88,10l0,0-2.52,4.37.33.55,2,3.45h5Z"/><path class="cls-8" d="M16.29,10.75,15.88,10l0,0-2.52,4.36.46.79Z"/><path class="cls-3" d="M17.9,6.44a2.07,2.07,0,0,0-.76-2.83l-.19-.11a2.07,2.07,0,0,0-2.83.76l-.78,1.36L15.85,10Z"/><path class="cls-2" d="M12.55,4.25a2.08,2.08,0,0,0-2.84-.76l-.19.11a2.08,2.08,0,0,0-.76,2.83l2,3.54,2.52-4.37Z"/></svg>