<?xml version="1.0" encoding="utf-8"?>
<!-- Generator: Adobe Illustrator 16.0.0, SVG Export Plug-In . SVG Version: 6.00 Build 0)  -->
<!DOCTYPE svg PUBLIC "-//W3C//DTD SVG 1.1//EN" "http://www.w3.org/Graphics/SVG/1.1/DTD/svg11.dtd">
<svg version="1.1" id="图层_1" xmlns="http://www.w3.org/2000/svg" xmlns:xlink="http://www.w3.org/1999/xlink" x="0px" y="0px"
	 width="152px" height="30px" viewBox="0 0 152 30" enable-background="new 0 0 152 30"
	 xml:space="preserve">
<g>
	<defs>
		<rect id="SVGID_1_" y="0" width="152" height="30"/>
	</defs>
	<clipPath id="SVGID_2_">
		<use xlink:href="#SVGID_1_"  overflow="visible"/>
	</clipPath>
	<path clip-path="url(#SVGID_2_)" fill="#353535" d="M285.683,0.805v19.409c-4-3.613-7.729-5.441-12.905-5.441
		c-5.99,0-10.87,2.148-15.029,6.384c-4.155,4.229-6.131,9.395-6.131,15.352c0,5.955,2.149,11.13,6.252,15.383
		c4.112,4.264,8.665,6.426,14.514,6.426c5.111,0,9.3-1.892,13.3-5.628v5.115h8v-57H285.683z M273.414,50.772
		c-3.781,0-6.936-1.382-9.643-4.226c-2.722-2.856-4.045-6.104-4.045-9.931c0-3.826,1.29-7.065,3.941-9.901
		c2.638-2.814,5.836-4.183,9.781-4.183c3.95,0,7.128,1.324,9.717,4.045c2.602,2.736,3.864,6.068,3.864,10.183
		c0,4.096-1.359,7.38-4.152,10.039C280.068,49.474,276.975,50.772,273.414,50.772"/>
	<path clip-path="url(#SVGID_2_)" fill="#353535" d="M192.682,14.805v5.412c-4-3.56-8.107-5.361-13.153-5.361
		c-5.787,0-10.677,2.07-14.884,6.151c-4.218,4.093-6.242,9.097-6.191,14.856c-0.051,5.53,1.992,10.396,5.982,14.462
		c3.994,4.068,9.041,6.131,14.957,6.131c2.953,0,5.856-0.583,8.604-1.733c1.973-0.825,3.765-1.931,5.339-3.3
		c-0.139,2.77-0.568,4.891-1.283,6.322c-0.855,1.711-2.373,3.109-4.511,4.157c-2.204,1.079-4.745,1.626-7.552,1.626
		c-6.146,0-10.404-2.399-13.022-7.093l-0.286-0.631h-8.392l0.539,1.484c3.557,9.021,10.75,13.652,21.378,13.652
		c3.123,0,6.032-0.438,8.648-1.359c2.645-0.933,4.946-2.312,6.841-4.131c1.902-1.827,3.001-4.082,3.939-6.716
		c0.935-2.628,1.047-6.498,1.047-11.848V14.805H192.682z M193.606,35.872c0,3.832-1.231,6.883-3.763,9.324
		c-2.541,2.452-5.741,3.645-9.781,3.645c-4.039,0-7.249-1.215-9.814-3.713c-2.559-2.49-3.802-5.447-3.802-9.039
		c0-3.601,1.307-6.68,3.997-9.416c2.684-2.73,5.926-4.057,9.906-4.057c3.748,0,6.828,1.227,9.419,3.748
		C192.352,28.881,193.606,31.991,193.606,35.872"/>
	<path clip-path="url(#SVGID_2_)" fill="#353535" d="M131.98,18.701c-4.361-3.003-8.094-4.011-12.751-4.011
		c-5.987,0-11.141,2.147-15.302,6.384c-4.155,4.23-6.266,9.383-6.266,15.316c0,5.929,2.091,11.104,6.219,15.382
		c4.136,4.288,9.203,6.462,15.026,6.462c5.092,0,9.775-1.891,13.775-5.627v5.198h8V34.078c0-4.125-2.463-8.829-3.369-10.106
		c-0.77-1.178-2.23-2.642-3.041-3.394C133.404,19.774,132.415,19,131.98,18.701 M119.32,50.689c-3.782,0-6.937-1.372-9.646-4.192
		c-2.719-2.832-4.042-6.079-4.042-9.928c0-3.851,1.301-7.1,3.976-9.934c2.659-2.816,5.825-4.186,9.677-4.186
		c3.857,0,7.026,1.326,9.687,4.053c2.668,2.737,3.965,6.041,3.965,10.103c0,4.058-1.318,7.347-4.027,10.057
		C126.2,49.372,123.063,50.689,119.32,50.689"/>
	<path clip-path="url(#SVGID_2_)" fill="#353535" d="M332.48,18.701c-4.361-3.003-8.094-4.011-12.751-4.011
		c-5.987,0-11.142,2.147-15.302,6.384c-4.155,4.23-6.267,9.383-6.267,15.316c0,5.929,2.091,11.104,6.218,15.382
		c4.138,4.288,8.954,6.462,14.777,6.462c5.092,0,9.525-1.891,13.525-5.627v5.198h8V34.078c0-4.125-2.213-8.829-3.119-10.106
		c-0.771-1.178-2.105-2.642-2.916-3.394C333.779,19.774,332.914,19,332.48,18.701 M319.82,50.689c-3.783,0-6.937-1.372-9.646-4.192
		c-2.72-2.832-4.042-6.079-4.042-9.928c0-3.851,1.301-7.1,3.975-9.934c2.66-2.816,5.826-4.186,9.678-4.186
		c3.857,0,7.026,1.326,9.688,4.053c2.668,2.737,3.965,6.041,3.965,10.103c0,4.058-1.318,7.347-4.027,10.057
		C326.7,49.372,323.563,50.689,319.82,50.689"/>
	<path clip-path="url(#SVGID_2_)" fill="#353535" d="M402.48,18.701c-4.361-3.003-8.094-4.011-12.751-4.011
		c-5.987,0-11.142,2.147-15.302,6.384c-4.155,4.23-6.267,9.383-6.267,15.316c0,5.929,2.091,11.104,6.218,15.382
		c4.138,4.288,8.954,6.462,14.777,6.462c5.092,0,9.525-1.891,13.525-5.627v5.198h8V34.078c0-4.125-2.213-8.829-3.119-10.106
		c-0.771-1.178-2.105-2.642-2.916-3.394C403.779,19.774,402.914,19,402.48,18.701 M389.82,50.689c-3.783,0-6.937-1.372-9.646-4.192
		c-2.72-2.832-4.042-6.079-4.042-9.928c0-3.851,1.301-7.1,3.975-9.934c2.66-2.816,5.826-4.186,9.678-4.186
		c3.857,0,7.026,1.326,9.688,4.053c2.668,2.737,3.965,6.041,3.965,10.103c0,4.058-1.318,7.347-4.027,10.057
		C396.7,49.372,393.563,50.689,389.82,50.689"/>
	<path clip-path="url(#SVGID_2_)" fill="#45A8E0" d="M149.709,1c1.296,0,2.387,0.444,3.275,1.332
		c0.889,0.889,1.332,1.969,1.332,3.239c0,1.274-0.443,2.354-1.332,3.241c-0.888,0.888-1.968,1.332-3.24,1.332
		c-1.271,0-2.351-0.456-3.239-1.368c-0.889-0.912-1.332-1.98-1.332-3.205c0-1.223,0.443-2.291,1.332-3.203
		C147.393,1.456,148.46,1,149.709,1"/>
	<rect x="146.757" y="15.868" clip-path="url(#SVGID_2_)" fill="#353535" width="5.976" height="41.248"/>
	<rect x="145.757" y="14.842" clip-path="url(#SVGID_2_)" fill="#353535" width="7.976" height="43.298"/>
	<rect x="147.757" y="16.894" clip-path="url(#SVGID_2_)" fill="#353535" width="3.976" height="39.197"/>
	<path clip-path="url(#SVGID_2_)" fill="#45A8E0" d="M149.744,11.144c-1.546,0-2.877-0.562-3.956-1.67
		c-1.071-1.1-1.615-2.412-1.615-3.902c0-1.489,0.544-2.801,1.616-3.902c1.079-1.108,2.398-1.67,3.92-1.67
		c1.563,0,2.903,0.546,3.982,1.624c1.079,1.081,1.625,2.409,1.625,3.948c0,1.541-0.547,2.869-1.625,3.947
		S151.285,11.144,149.744,11.144"/>
	<path clip-path="url(#SVGID_2_)" fill="#45A8E0" d="M149.709,2c-0.976,0-1.789,0.349-2.488,1.065
		c-0.705,0.725-1.048,1.545-1.048,2.506c0,0.964,0.343,1.783,1.048,2.506c0.699,0.719,1.523,1.067,2.523,1.067
		c1.006,0,1.834-0.34,2.533-1.04c0.7-0.699,1.039-1.527,1.039-2.533c0-1.004-0.339-1.832-1.039-2.533
		C151.578,2.34,150.737,2,149.709,2"/>
	<path clip-path="url(#SVGID_2_)" fill="#353535" d="M241.465,21.112c-4.137-4.261-9.235-6.422-15.152-6.422
		c-5.966,0-11.089,2.161-15.227,6.422c-4.128,4.255-6.222,9.432-6.222,15.385c0,5.955,2.082,11.119,6.186,15.349
		c4.112,4.239,9.247,6.387,15.263,6.387c6.015,0,11.138-2.149,15.228-6.389c4.079-4.229,6.147-9.394,6.147-15.347
		S245.594,25.367,241.465,21.112 M226.312,50.546c-3.879,0-7.01-1.312-9.572-4.01c-2.575-2.712-3.828-5.926-3.828-9.822
		c0-3.9,1.3-7.173,3.975-10.006c2.659-2.816,5.73-4.186,9.389-4.186c3.66,0,6.744,1.37,9.428,4.189
		c2.697,2.834,4.009,6.094,4.009,9.966c0,3.871-1.286,7.082-3.931,9.818C233.146,49.22,230.049,50.546,226.312,50.546"/>
	<path clip-path="url(#SVGID_2_)" fill="#353535" d="M366.682,22.805v-7h-11v-15h-8V16.14v7v22.334c0,2.709,0.098,7.855,1.125,9.666
		c1.313,2.312,4.303,3,6.875,3c1.254,0,5.91-0.104,8.254-0.496l0.746-0.14v-7.699h-6.125c-3.125,0-2.875-1.755-2.875-3.665V22.805
		H366.682z"/>
	<polygon clip-path="url(#SVGID_2_)" fill="#353535" points="35.532,33.712 42.027,45.174 35.58,45.174 29.038,45.174 	"/>
	<path clip-path="url(#SVGID_2_)" fill="#F8D14A" d="M7.822,58.333c-1.546,2.679-0.628,6.079,2.049,7.624l0.51,0.281
		c2.677,1.547,6.103,0.674,7.649-2.005l4.334-7.462H8.753L7.822,58.333z"/>
	<path clip-path="url(#SVGID_2_)" fill="#F8D14A" d="M45.743,4.979l-0.51-0.295c-2.678-1.547-6.102-0.629-7.647,2.049l-2.116,3.665
		l-6.799,11.776l-0.007-0.019L15.559,44.825h13.611l5.4-9.325c0.006,0.001,0.011,0.002,0.016,0.003l0.884-1.532L42.266,22.2v-0.001
		l0.01-0.016v0.001l5.519-9.558C49.339,9.947,48.421,6.524,45.743,4.979 M28.695,22.237L28.695,22.237L28.695,22.237z"/>
	<polygon clip-path="url(#SVGID_2_)" fill="#D1A424" points="14.03,47.812 7.642,58.659 21.024,58.823 27.341,47.812 	"/>
	<polygon clip-path="url(#SVGID_2_)" fill="#F04D98" points="41.771,44.826 29.168,44.826 15.559,44.826 8.752,56.771 
		22.365,56.771 48.576,56.771 	"/>
	<polygon clip-path="url(#SVGID_2_)" fill="#BC2076" points="39.413,44.826 46.219,56.771 59.83,56.771 53.023,44.826 	"/>
	<path clip-path="url(#SVGID_2_)" fill="#F04D98" d="M5.412,44.826C2.319,44.826,0,47.391,0,50.483v0.589
		c0,3.093,2.319,5.699,5.412,5.699h3.341l6.805-11.945H5.412z"/>
	<path clip-path="url(#SVGID_2_)" fill="#F04D98" d="M64.938,44.826h-9.557l6.805,11.945h2.752c3.092,0,5.743-2.606,5.743-5.699
		v-0.589C70.682,47.391,68.031,44.826,64.938,44.826"/>
	<path clip-path="url(#SVGID_2_)" fill="#45A8E0" d="M42.275,22.184l-0.01,0.017c0.027,0.036,0.056,0.072,0.082,0.108L42.275,22.184
		z"/>
	<path clip-path="url(#SVGID_2_)" fill="#45A8E0" d="M63.117,58.34l-0.931-1.568l-6.804-11.945L43.114,23.608l-0.767-1.313
		c-0.026-0.037-0.055-0.066-0.082-0.103L35.47,33.967l0.887,1.512l5.413,9.347l6.805,11.945l4.334,7.455
		c1.546,2.68,4.972,3.571,7.646,2.026l0.512-0.308C63.745,64.398,64.663,61.018,63.117,58.34"/>
	<path clip-path="url(#SVGID_2_)" fill="#45A8E0" d="M33.355,6.733c-1.548-2.679-4.973-3.595-7.651-2.049l-0.509,0.294
		c-2.678,1.547-3.596,4.97-2.049,7.649l5.518,9.557l6.806-11.787L33.355,6.733z"/>
	<path clip-path="url(#SVGID_2_)" fill="#2A8EBA" d="M43.464,24.256l-1.116-1.947c-0.027-0.036-0.056-0.073-0.082-0.109
		L35.47,33.972l1.234,2.127L43.464,24.256z"/>
</g>
</svg>
