<?xml version="1.0" encoding="utf-8"?>
<!-- Generator: Adobe Illustrator 16.0.0, SVG Export Plug-In . SVG Version: 6.00 Build 0)  -->
<!DOCTYPE svg PUBLIC "-//W3C//DTD SVG 1.1//EN" "http://www.w3.org/Graphics/SVG/1.1/DTD/svg11.dtd">
<svg version="1.1" id="图层_1" xmlns="http://www.w3.org/2000/svg" xmlns:xlink="http://www.w3.org/1999/xlink" x="0px" y="0px"
	 width="480px" height="82.895px" viewBox="0 0 480 82.895" enable-background="new 0 0 480 82.895" xml:space="preserve">
<g>
	<g>
		<path fill="#FFFFFF" d="M321,11.553v19.409c-4-3.613-7.729-5.441-12.904-5.441c-5.99,0-10.87,2.148-15.029,6.384
			c-4.155,4.229-6.131,9.396-6.131,15.353c0,5.955,2.148,11.13,6.252,15.383c4.112,4.264,8.665,6.426,14.514,6.426
			c5.111,0,9.299-1.892,13.299-5.628v5.115h8v-57H321z M308.732,61.521c-3.781,0-6.936-1.382-9.643-4.226
			c-2.722-2.856-4.045-6.104-4.045-9.931s1.289-7.064,3.941-9.9c2.637-2.814,5.836-4.184,9.781-4.184
			c3.95,0,7.128,1.324,9.717,4.045c2.601,2.736,3.864,6.068,3.864,10.184c0,4.096-1.359,7.38-4.152,10.039
			C315.387,60.222,312.292,61.521,308.732,61.521z"/>
		<path fill="#FFFFFF" d="M228,25.553v5.412c-4-3.56-8.107-5.36-13.153-5.36c-5.787,0-10.677,2.069-14.884,6.15
			c-4.218,4.093-6.242,9.098-6.191,14.856c-0.051,5.529,1.992,10.396,5.982,14.462c3.994,4.068,9.041,6.131,14.957,6.131
			c2.953,0,5.855-0.583,8.604-1.733c1.974-0.825,3.766-1.931,5.339-3.3c-0.139,2.77-0.567,4.891-1.282,6.322
			c-0.855,1.711-2.373,3.109-4.512,4.157c-2.203,1.079-4.744,1.626-7.552,1.626c-6.146,0-10.404-2.399-13.021-7.093L202,66.553
			h-8.393l0.539,1.484c3.558,9.021,10.75,13.652,21.378,13.652c3.123,0,6.032-0.438,8.648-1.359
			c2.645-0.933,4.946-2.312,6.841-4.131c1.902-1.827,3.001-4.082,3.939-6.716c0.935-2.628,1.047-6.498,1.047-11.848V25.553H228z
			 M228.925,46.62c0,3.832-1.231,6.883-3.763,9.324c-2.541,2.452-5.741,3.645-9.781,3.645c-4.039,0-7.249-1.215-9.814-3.713
			c-2.559-2.49-3.802-5.447-3.802-9.039c0-3.601,1.308-6.68,3.997-9.416c2.685-2.729,5.926-4.057,9.906-4.057
			c3.748,0,6.828,1.227,9.419,3.748C227.67,39.629,228.925,42.739,228.925,46.62z"/>
		<path fill="#FFFFFF" d="M167.299,29.448c-4.361-3.003-8.094-4.011-12.751-4.011c-5.987,0-11.141,2.147-15.302,6.384
			c-4.155,4.23-6.267,9.383-6.267,15.316c0,5.929,2.091,11.104,6.218,15.382c4.137,4.288,9.204,6.462,15.027,6.462
			c5.092,0,9.775-1.891,13.775-5.627v5.198h8c0,0,0-21.456,0-23.728c0-4.125-2.463-8.829-3.369-10.105
			c-0.771-1.179-2.23-2.643-3.041-3.395C168.723,30.522,167.732,29.747,167.299,29.448z M154.639,61.438
			c-3.783,0-6.938-1.372-9.646-4.192c-2.719-2.832-4.042-6.08-4.042-9.928c0-3.851,1.3-7.1,3.975-9.934
			c2.66-2.816,5.825-4.187,9.677-4.187c3.857,0,7.026,1.326,9.688,4.054c2.668,2.736,3.965,6.041,3.965,10.103
			c0,4.058-1.318,7.347-4.027,10.057C161.519,60.12,158.382,61.438,154.639,61.438z"/>
		<path fill="#FFFFFF" d="M367.799,29.448c-4.361-3.003-8.094-4.011-12.751-4.011c-5.987,0-11.142,2.147-15.302,6.384
			c-4.155,4.23-6.267,9.383-6.267,15.316c0,5.929,2.091,11.104,6.218,15.382c4.138,4.288,8.954,6.462,14.777,6.462
			c5.092,0,9.525-1.891,13.525-5.627v5.198h8c0,0,0-21.456,0-23.728c0-4.125-2.213-8.829-3.119-10.105
			c-0.771-1.179-2.105-2.643-2.916-3.395C369.098,30.522,368.232,29.747,367.799,29.448z M355.139,61.438
			c-3.783,0-6.938-1.372-9.646-4.192c-2.719-2.832-4.041-6.08-4.041-9.928c0-3.851,1.301-7.1,3.975-9.934
			c2.66-2.816,5.826-4.187,9.678-4.187c3.857,0,7.026,1.326,9.688,4.054c2.668,2.736,3.965,6.041,3.965,10.103
			c0,4.058-1.318,7.347-4.027,10.057C362.019,60.12,358.882,61.438,355.139,61.438z"/>
		<path fill="#FFFFFF" d="M437.799,29.448c-4.361-3.003-8.094-4.011-12.751-4.011c-5.987,0-11.142,2.147-15.302,6.384
			c-4.155,4.23-6.267,9.383-6.267,15.316c0,5.929,2.091,11.104,6.218,15.382c4.138,4.288,8.954,6.462,14.777,6.462
			c5.092,0,9.525-1.891,13.525-5.627v5.198h8c0,0,0-21.456,0-23.728c0-4.125-2.213-8.829-3.119-10.105
			c-0.771-1.179-2.105-2.643-2.916-3.395C439.098,30.522,438.232,29.747,437.799,29.448z M425.139,61.438
			c-3.783,0-6.938-1.372-9.646-4.192c-2.719-2.832-4.041-6.08-4.041-9.928c0-3.851,1.301-7.1,3.975-9.934
			c2.66-2.816,5.826-4.187,9.678-4.187c3.857,0,7.026,1.326,9.688,4.054c2.668,2.736,3.965,6.041,3.965,10.103
			c0,4.058-1.318,7.347-4.027,10.057C432.019,60.12,428.882,61.438,425.139,61.438z"/>
		<path fill="#FFFFFF" d="M185.027,11.748c1.296,0,2.387,0.444,3.275,1.332c0.889,0.889,1.332,1.969,1.332,3.239
			c0,1.273-0.443,2.354-1.332,3.24c-0.889,0.889-1.969,1.332-3.24,1.332s-2.352-0.455-3.239-1.367
			c-0.889-0.912-1.332-1.98-1.332-3.205c0-1.224,0.443-2.291,1.332-3.203C182.711,12.204,183.778,11.748,185.027,11.748z"/>
		<rect x="182.075" y="26.616" fill="#FFFFFF" width="5.976" height="41.248"/>
		<rect x="181.075" y="25.591" fill="#FFFFFF" width="7.976" height="43.298"/>
		<rect x="183.075" y="27.642" fill="#FFFFFF" width="3.976" height="39.197"/>
		<path fill="#FFFFFF" d="M185.062,21.892c-1.546,0-2.877-0.562-3.956-1.67c-1.071-1.1-1.615-2.412-1.615-3.902
			c0-1.488,0.544-2.801,1.616-3.901c1.079-1.108,2.398-1.67,3.92-1.67c1.563,0,2.903,0.546,3.982,1.624
			c1.079,1.08,1.625,2.408,1.625,3.947c0,1.541-0.547,2.869-1.625,3.947S186.604,21.892,185.062,21.892z"/>
		<path fill="#FFFFFF" d="M185.027,12.748c-0.976,0-1.789,0.349-2.488,1.065c-0.705,0.725-1.048,1.545-1.048,2.506
			c0,0.964,0.343,1.783,1.048,2.506c0.699,0.719,1.523,1.066,2.523,1.066c1.006,0,1.834-0.34,2.533-1.039s1.039-1.527,1.039-2.533
			c0-1.004-0.34-1.832-1.039-2.533C186.896,13.088,186.056,12.748,185.027,12.748z"/>
		<path fill="#FFFFFF" d="M276.783,31.86c-4.137-4.262-9.235-6.423-15.152-6.423c-5.966,0-11.089,2.161-15.227,6.423
			c-4.129,4.255-6.223,9.432-6.223,15.385c0,5.955,2.082,11.119,6.187,15.349c4.112,4.239,9.247,6.388,15.263,6.388
			c6.015,0,11.138-2.15,15.227-6.39c4.08-4.229,6.148-9.394,6.148-15.347S280.912,36.115,276.783,31.86z M261.631,61.294
			c-3.879,0-7.01-1.312-9.572-4.01c-2.576-2.712-3.828-5.926-3.828-9.822c0-3.9,1.3-7.173,3.975-10.006
			c2.659-2.816,5.73-4.187,9.389-4.187c3.66,0,6.744,1.37,9.428,4.189c2.697,2.834,4.009,6.094,4.009,9.966
			c0,3.871-1.286,7.082-3.931,9.818C268.465,59.968,265.367,61.294,261.631,61.294z"/>
		<path fill="#FFFFFF" d="M402,33.553v-7h-11v-15h-8v15.335l0,0v7l0,0v22.334c0,2.709,0.098,7.855,1.125,9.666
			c1.312,2.312,4.303,3,6.875,3c1.254,0,5.91-0.104,8.254-0.496l0.746-0.14v-7.699h-6.125c-3.125,0-2.875-1.755-2.875-3.665V33.553
			H402z"/>
	</g>
	<g>
		<polygon fill="#353535" points="69.037,40.592 73.458,48.572 77.877,56.553 69.037,56.553 60.198,56.553 64.618,48.572 		"/>
		<polygon fill="#F8D14A" points="76.466,30.809 69.63,18.969 62.793,30.81 69.629,42.65 		"/>
		<polygon fill="none" points="63.3,53.553 75.958,53.553 69.629,42.591 		"/>
		<polygon fill="#F04D98" points="63.3,53.553 56.465,65.553 82.794,65.553 75.958,53.553 		"/>
		<polygon fill="#BC2076" points="73.59,53.553 80.427,65.553 94.099,65.553 87.263,53.553 		"/>
		<path fill="#F04D98" d="M39.437,53.553C36.33,53.553,34,56.13,34,59.236v0.592c0,3.105,2.33,5.725,5.437,5.725h3.356l6.836-12
			H39.437z"/>
		<path fill="#F04D98" d="M99.23,53.553h-9.6l6.836,12h2.764c3.106,0,5.77-2.619,5.77-5.725v-0.592
			C105,56.13,102.337,53.553,99.23,53.553z"/>
		<path fill="#F8D14A" d="M41.857,67.121c-1.553,2.691-0.631,6.105,2.058,7.658l0.513,0.282c2.689,1.554,6.13,0.677,7.683-2.014
			l4.354-7.495H42.792L41.857,67.121z"/>
		<polygon fill="#D1A424" points="48.306,56.553 41.805,67.588 55.421,67.756 61.848,56.553 		"/>
		<polygon fill="#F04D98" points="49.628,53.553 42.792,65.553 56.465,65.553 63.3,53.553 		"/>
		<path fill="#45A8E0" d="M87.147,73.041c1.553,2.691,4.994,3.588,7.681,2.035l0.514-0.309c2.69-1.554,3.612-4.949,2.059-7.64
			l-0.935-1.575H82.794L87.147,73.041z"/>
		<polygon fill="#45A8E0" points="75.958,53.553 82.794,65.553 96.467,65.553 89.631,53.553 		"/>
		<path fill="#F8D14A" d="M61.218,35.801c0-1.847,0.6-3.549,1.606-4.938l-0.031-0.083L49.628,53.553H63.3l5.441-9.395
			C64.512,43.702,61.218,40.152,61.218,35.801z"/>
		<path fill="#45A8E0" d="M76.466,30.809l-0.009,0.017c0.026,0.036,0.055,0.072,0.082,0.109L76.466,30.809z"/>
		<path fill="#F8D14A" d="M76.457,30.826c-1.536-2.095-4.007-3.461-6.803-3.461c-2.812,0-5.296,1.382-6.83,3.498l6.805,11.787
			L76.457,30.826z"/>
		<path fill="#F8D14A" d="M62.824,30.863c-1.006,1.389-1.606,3.092-1.606,4.938c0,4.351,3.294,7.931,7.523,8.387l0.888-1.539
			L62.824,30.863z"/>
		<path fill="#45A8E0" d="M77.308,32.239l-0.77-1.319c-0.026-0.037-0.055-0.066-0.082-0.103l-6.827,11.828l0.892,1.518l5.438,9.389
			h13.672L77.308,32.239z"/>
		<path fill="#2A8EBA" d="M77.659,32.891l-1.121-1.956c-0.026-0.037-0.055-0.073-0.082-0.109L69.629,42.65l1.24,2.137L77.659,32.891
			z"/>
		<path fill="#F8D14A" d="M82.009,21.208c1.553-2.69,0.63-6.129-2.06-7.682l-0.512-0.296c-2.69-1.554-6.13-0.631-7.683,2.059
			l-2.125,3.681l6.835,11.84L82.009,21.208z"/>
		<path fill="#45A8E0" d="M67.505,15.289c-1.554-2.691-4.995-3.611-7.685-2.059l-0.512,0.295c-2.69,1.554-3.611,4.993-2.058,7.684
			l5.543,9.6l6.837-11.84L67.505,15.289z"/>
	</g>
</g>
</svg>
